<svg width="32" height="32" viewBox="0 0 32 32" xmlns="http://www.w3.org/2000/svg">
  <defs>
    <linearGradient id="layer1" x1="0%" y1="0%" x2="100%" y2="100%">
      <stop offset="0%" style="stop-color:#06B6D4"/>
      <stop offset="100%" style="stop-color:#0891B2"/>
    </linearGradient>
    <linearGradient id="layer2" x1="0%" y1="0%" x2="100%" y2="100%">
      <stop offset="0%" style="stop-color:#3B82F6"/>
      <stop offset="100%" style="stop-color:#1E40AF"/>
    </linearGradient>
  </defs>
  
  <!-- Background -->
  <rect width="32" height="32" rx="8" fill="#0F172A"/>
  
  <!-- Cloud platform layers -->
  <rect x="4" y="20" width="24" height="4" rx="2" fill="url(#layer1)"/>
  <rect x="6" y="16" width="20" height="4" rx="2" fill="url(#layer2)" opacity="0.8"/>
  <rect x="8" y="12" width="16" height="4" rx="2" fill="url(#layer1)" opacity="0.6"/>
  
  <!-- Cloud symbol -->
  <path d="M16 4 Q12 4 10 7 Q8 6 6 8 Q6 10 8 10 L24 10 Q26 10 26 8 Q24 6 22 7 Q20 4 16 4" fill="#60A5FA" opacity="0.9"/>
  
  <!-- Connection dots -->
  <circle cx="16" cy="14" r="1" fill="#FFFFFF"/>
  <circle cx="16" cy="18" r="1" fill="#FFFFFF"/>
  <circle cx="16" cy="22" r="1" fill="#FFFFFF"/>
</svg>

